<svg width="20" height="20" viewBox="0 0 20 20" fill="none" xmlns="http://www.w3.org/2000/svg">
<path d="M9.76801 11.0557L6.01463 12.338L0.384549 7.84995L9.76801 11.0557ZM0.424916 7.70523L7.48911 7.55387L9.80898 10.9112L0.424916 7.70523ZM4.13392 19.6771L9.925 11.2962V15.44L4.13392 19.6771ZM10.075 15.44V11.2962L15.8661 19.6771L10.075 15.44ZM13.9434 12.4967L15.9816 19.5804L10.2375 11.2675C10.653 11.4826 11.2222 11.7497 11.8239 11.9799C12.5472 12.2566 13.3262 12.4833 13.9434 12.4967ZM19.6155 7.84995L13.9739 12.3471C13.3807 12.3408 12.6094 12.1198 11.8775 11.8398C11.221 11.5886 10.6033 11.2929 10.1863 11.0713L19.6155 7.84995ZM12.5109 7.55387L19.5751 7.70523L10.191 10.9112L12.5109 7.55387ZM10.075 0.465811L12.3892 7.4661L10.075 10.8153V0.465811ZM7.6108 7.4661L9.925 0.465814V10.8153L7.6108 7.4661ZM9.80898 11.2002L4.01844 19.5804L6.06126 12.4806L9.80898 11.2002Z" fill="#3D3AC6" stroke="black" stroke-width="0.15"/>
</svg>
